<mxfile host="app.diagrams.net" modified="2023-07-13T02:12:19.844Z" agent="Mozilla/5.0 (Windows NT 10.0; Win64; x64) AppleWebKit/537.36 (KHTML, like Gecko) Chrome/114.0.0.0 Safari/537.36" etag="Wjpc2Mh9apcHejFEW4aZ" version="21.6.2" type="github">
  <diagram name="Page-1" id="efa7a0a1-bf9b-a30e-e6df-94a7791c09e9">
    <mxGraphModel dx="636" dy="442" grid="1" gridSize="10" guides="1" tooltips="1" connect="1" arrows="1" fold="1" page="1" pageScale="1" pageWidth="826" pageHeight="1169" background="none" math="0" shadow="0">
      <root>
        <mxCell id="0" />
        <mxCell id="1" parent="0" />
        <mxCell id="NcHbzmvksI0dErMpMBU--114" value="Occasions" style="swimlane;" vertex="1" parent="1">
          <mxGeometry x="10" y="20" width="100" height="110" as="geometry">
            <mxRectangle x="30" y="40" width="100" height="30" as="alternateBounds" />
          </mxGeometry>
        </mxCell>
        <mxCell id="NcHbzmvksI0dErMpMBU--117" value="id&lt;br&gt;title&lt;br&gt;code&lt;br&gt;category_flow" style="text;align=left;verticalAlign=top;spacingLeft=4;spacingRight=4;overflow=hidden;rotatable=0;points=[[0,0.5],[1,0.5]];portConstraint=eastwest;whiteSpace=wrap;html=1;" vertex="1" parent="NcHbzmvksI0dErMpMBU--114">
          <mxGeometry y="20" width="90" height="70" as="geometry" />
        </mxCell>
        <mxCell id="NcHbzmvksI0dErMpMBU--118" value="Category" style="swimlane;" vertex="1" parent="1">
          <mxGeometry x="140" y="20" width="100" height="110" as="geometry">
            <mxRectangle x="30" y="40" width="100" height="30" as="alternateBounds" />
          </mxGeometry>
        </mxCell>
        <mxCell id="NcHbzmvksI0dErMpMBU--119" value="id&lt;br&gt;title&lt;br&gt;code" style="text;align=left;verticalAlign=top;spacingLeft=4;spacingRight=4;overflow=hidden;rotatable=0;points=[[0,0.5],[1,0.5]];portConstraint=eastwest;whiteSpace=wrap;html=1;" vertex="1" parent="NcHbzmvksI0dErMpMBU--118">
          <mxGeometry y="20" width="90" height="80" as="geometry" />
        </mxCell>
        <mxCell id="NcHbzmvksI0dErMpMBU--122" style="edgeStyle=orthogonalEdgeStyle;rounded=0;orthogonalLoop=1;jettySize=auto;html=1;exitX=0.5;exitY=0;exitDx=0;exitDy=0;entryX=0.5;entryY=1;entryDx=0;entryDy=0;" edge="1" parent="1" source="NcHbzmvksI0dErMpMBU--120" target="NcHbzmvksI0dErMpMBU--114">
          <mxGeometry relative="1" as="geometry" />
        </mxCell>
        <mxCell id="NcHbzmvksI0dErMpMBU--123" style="edgeStyle=orthogonalEdgeStyle;rounded=0;orthogonalLoop=1;jettySize=auto;html=1;exitX=0.5;exitY=0;exitDx=0;exitDy=0;entryX=0.5;entryY=1;entryDx=0;entryDy=0;" edge="1" parent="1" source="NcHbzmvksI0dErMpMBU--120" target="NcHbzmvksI0dErMpMBU--118">
          <mxGeometry relative="1" as="geometry">
            <mxPoint x="240" y="150" as="targetPoint" />
          </mxGeometry>
        </mxCell>
        <mxCell id="NcHbzmvksI0dErMpMBU--120" value="Birthday_Decorations" style="swimlane;" vertex="1" parent="1">
          <mxGeometry x="30" y="170" width="180" height="190" as="geometry">
            <mxRectangle x="30" y="40" width="100" height="30" as="alternateBounds" />
          </mxGeometry>
        </mxCell>
        <mxCell id="NcHbzmvksI0dErMpMBU--121" value="id&lt;br&gt;category_id&lt;br&gt;occasion_id&lt;br&gt;images&lt;br&gt;original_price&lt;br&gt;discount&lt;br&gt;actual_price&lt;br&gt;rating" style="text;align=left;verticalAlign=top;spacingLeft=4;spacingRight=4;overflow=hidden;rotatable=0;points=[[0,0.5],[1,0.5]];portConstraint=eastwest;whiteSpace=wrap;html=1;" vertex="1" parent="NcHbzmvksI0dErMpMBU--120">
          <mxGeometry y="20" width="180" height="170" as="geometry" />
        </mxCell>
        <mxCell id="NcHbzmvksI0dErMpMBU--125" value="Images" style="swimlane;startSize=23;" vertex="1" parent="1">
          <mxGeometry x="260" y="20" width="100" height="110" as="geometry">
            <mxRectangle x="30" y="40" width="100" height="30" as="alternateBounds" />
          </mxGeometry>
        </mxCell>
        <mxCell id="NcHbzmvksI0dErMpMBU--126" value="id&lt;br&gt;title&lt;br&gt;code" style="text;align=left;verticalAlign=top;spacingLeft=4;spacingRight=4;overflow=hidden;rotatable=0;points=[[0,0.5],[1,0.5]];portConstraint=eastwest;whiteSpace=wrap;html=1;" vertex="1" parent="NcHbzmvksI0dErMpMBU--125">
          <mxGeometry y="20" width="90" height="80" as="geometry" />
        </mxCell>
      </root>
    </mxGraphModel>
  </diagram>
</mxfile>
